<?xml version="1.0" encoding="UTF-8"?>
<svg width="512" height="512" viewBox="0 0 512 512" fill="none" xmlns="http://www.w3.org/2000/svg">
  <!-- Background Circle -->
  <circle cx="256" cy="256" r="248" fill="#1F2937" stroke="#4F46E5" stroke-width="16"/>
  
  <!-- Octagon Shape (UFC Cage) -->
  <path d="M256 120
           L356 170
           L406 270
           L356 370
           L256 420
           L156 370
           L106 270
           L156 170
           Z" 
        fill="none" 
        stroke="#4F46E5" 
        stroke-width="12"
        stroke-linejoin="round"/>
  
  <!-- Stylized Fighter Silhouette -->
  <path d="M256 180
           C270 180 280 190 280 205
           C280 220 270 230 256 230
           C242 230 232 220 232 205
           C232 190 242 180 256 180Z
           M220 240
           L292 240
           L310 280
           L320 340
           L256 380
           L192 340
           L202 280
           Z" 
        fill="#4F46E5"/>
</svg>